<?xml version="1.0" encoding="UTF-8" standalone="no"?>
<!-- Created with Inkscape (http://www.inkscape.org/) -->

<svg
   xmlns:ns0="http://www.iki.fi/pav/software/textext/"
   xmlns:osb="http://www.openswatchbook.org/uri/2009/osb"
   xmlns:dc="http://purl.org/dc/elements/1.1/"
   xmlns:cc="http://creativecommons.org/ns#"
   xmlns:rdf="http://www.w3.org/1999/02/22-rdf-syntax-ns#"
   xmlns:svg="http://www.w3.org/2000/svg"
   xmlns="http://www.w3.org/2000/svg"
   xmlns:xlink="http://www.w3.org/1999/xlink"
   xmlns:sodipodi="http://sodipodi.sourceforge.net/DTD/sodipodi-0.dtd"
   xmlns:inkscape="http://www.inkscape.org/namespaces/inkscape"
   id="svg3036"
   version="1.1"
   inkscape:version="0.48.5 r10040"
   width="529"
   height="263"
   sodipodi:docname="polygon_solution.svg">
  <sodipodi:namedview
     pagecolor="#ffffff"
     bordercolor="#666666"
     borderopacity="1"
     objecttolerance="10"
     gridtolerance="10"
     guidetolerance="10"
     inkscape:pageopacity="0"
     inkscape:pageshadow="2"
     inkscape:window-width="1218"
     inkscape:window-height="677"
     id="namedview3038"
     showgrid="false"
     inkscape:zoom="1.95"
     inkscape:cx="267.88056"
     inkscape:cy="131.5"
     inkscape:window-x="75"
     inkscape:window-y="34"
     inkscape:window-maximized="0"
     inkscape:current-layer="layer2" />
  <metadata
     id="metadata3042">
    <rdf:RDF>
      <cc:Work
         rdf:about="">
        <dc:format>image/svg+xml</dc:format>
        <dc:type
           rdf:resource="http://purl.org/dc/dcmitype/StillImage" />
        <dc:title></dc:title>
      </cc:Work>
    </rdf:RDF>
  </metadata>
  <defs
     id="defs3040">
    <linearGradient
       id="linearGradient6338"
       osb:paint="solid">
      <stop
         style="stop-color:#000000;stop-opacity:1;"
         offset="0"
         id="stop6340" />
    </linearGradient>
    <marker
       inkscape:stockid="Arrow2Mend"
       orient="auto"
       refY="0.0"
       refX="0.0"
       id="Arrow2Mend"
       style="overflow:visible;">
      <path
         id="path3902"
         style="fill-rule:evenodd;stroke-width:0.62500000;stroke-linejoin:round;"
         d="M 8.7185878,4.0337352 L -2.2072895,0.016013256 L 8.7185884,-4.0017078 C 6.9730900,-1.6296469 6.9831476,1.6157441 8.7185878,4.0337352 z "
         transform="scale(0.6) rotate(180) translate(0,0)" />
    </marker>
    <marker
       inkscape:stockid="Arrow1Mend"
       orient="auto"
       refY="0.0"
       refX="0.0"
       id="Arrow1Mend"
       style="overflow:visible;">
      <path
         id="path4444"
         d="M 0.0,0.0 L 5.0,-5.0 L -12.5,0.0 L 5.0,5.0 L 0.0,0.0 z "
         style="fill-rule:evenodd;stroke:#000000;stroke-width:1.0pt;"
         transform="scale(0.4) rotate(180) translate(10,0)" />
    </marker>
    <marker
       id="Arrow2Lend"
       refY="0"
       refX="0"
       orient="auto">
      <path
         style="fill-rule:evenodd;stroke-width:0.625;stroke-linejoin:round"
         inkscape:connector-curvature="0"
         d="M 8.7186,4.0337 -2.2074,0.016 8.7186,-4.0017 c -1.7455,2.3721 -1.7355,5.6174 0,8.0354 z"
         transform="matrix(-1.1,0,0,-1.1,-1.1,0)"
         id="path9" />
    </marker>
    <marker
       id="marker3250"
       refY="0"
       refX="0"
       orient="auto">
      <path
         style="fill-rule:evenodd;stroke-width:0.625;stroke-linejoin:round"
         inkscape:connector-curvature="0"
         d="M 8.7186,4.0337 -2.2074,0.016 8.7186,-4.0017 c -1.7455,2.3721 -1.7355,5.6174 0,8.0354 z"
         transform="matrix(-1.1,0,0,-1.1,-1.1,0)"
         id="path3252" />
    </marker>
  </defs>
  <g
     inkscape:groupmode="layer"
     id="layer1"
     inkscape:label="original"
     style="display:inline">
    <path
       style="fill:#121212"
       d="m 136.05919,258.04166 c 0,-0.45412 1.125,-1.88256 2.5,-3.17431 1.375,-1.29175 2.5,-3.17019 2.5,-4.17431 0,-1.96517 -1.49135,-2.45772 -2.5,-0.82569 -0.9487,1.53504 -2.50875,1.18638 -1.8913,-0.42268 0.67864,-1.76851 2.93302,-2.69041 4.81398,-1.96862 2.49799,0.95857 2.74193,3.67738 0.59098,6.5867 -2.07314,2.80407 -2.07315,2.8046 -0.0436,2.8046 1.11647,0 2.02994,0.45 2.02994,1 0,0.55 -1.8,1 -4,1 -2.2,0 -4,-0.37156 -4,-0.82569 z m 35.61394,-5.57544 c -2.0045,-4.22417 -2.07941,-11.54908 -0.16497,-16.13099 1.76808,-4.23161 4.18268,-4.82391 2.92656,-0.71788 -0.4627,1.5125 -0.84128,5.45 -0.84128,8.75 0,3.3 0.37858,7.2375 0.84128,8.75 1.21188,3.9614 -0.79764,3.48759 -2.76159,-0.65113 z m 73.06867,1.15113 c 1.03194,-2.84059 0.95521,-15.51279 -0.11202,-18.5 -1.24397,-3.4819 1.11398,-2.76066 3.01911,0.92347 2.07199,4.00678 2.10642,11.22472 0.0767,16.08249 -1.6919,4.0493 -4.40573,5.40815 -2.9838,1.49404 z m -52.9064,-0.92621 c 0.879,-0.879 0.88971,-1.52141 0.0424,-2.54238 -1.58412,-1.90874 0.61301,-4.24981 2.35428,-2.50854 1.41871,1.41871 -0.39701,6.22713 -2.35143,6.22713 -0.93628,0 -0.94684,-0.2746 -0.0452,-1.17621 z m 26.47439,-2.32602 c -0.18619,-2.61128 0.14667,-3.49777 1.31336,-3.49777 1.1545,0 1.4809,0.82891 1.2494,3.17299 -0.43178,4.3721 -2.25768,4.6035 -2.56276,0.32478 z m -91.2506,-8.63706 0,-9.13929 5.10588,0.60471 c 5.83952,0.69161 7.90065,2.01174 7.87881,5.04631 -0.0245,3.40663 -1.51018,4.86565 -5.63053,5.52954 -3.46029,0.55755 -3.88618,0.95196 -4.16752,3.85952 -0.19382,2.00311 -0.86139,3.2385 -1.75,3.2385 -1.14406,0 -1.43664,-1.86128 -1.43664,-9.13929 z m 9,-2.74408 c 0,-1.09249 -0.91273,-2.12205 -2.17354,-2.45176 -2.75976,-0.7217 -3.82646,-0.0543 -3.82646,2.39415 0,1.48998 0.69707,1.94098 3,1.94098 2.27141,0 3,-0.4574 3,-1.88337 z m 41,10.46497 c 0,-0.78012 1.8,-3.29184 4,-5.5816 2.2,-2.28976 4,-4.77492 4,-5.52258 0,-2.27374 -2.22263,-2.89345 -3.60366,-1.00477 -1.57885,2.1592 -4.64215,1.33149 -3.7431,-1.0114 0.8981,-2.34039 4.87976,-3.5893 7.84676,-2.46125 3.63416,1.3817 3.37137,5.93797 -0.60359,10.4652 l -3.10359,3.5348 3.10359,0 c 2.09208,0 3.10359,0.48887 3.10359,1.5 0,1.15152 -1.27778,1.5 -5.5,1.5 -4.0816,0 -5.5,-0.36579 -5.5,-1.4184 z m 28.5567,-0.80411 c -1.90487,-2.71959 -2.04354,-10.72944 -0.22871,-13.21136 1.45482,-1.98959 6.19762,-2.44052 7.88815,-0.74999 1.94879,1.94879 2.20182,10.89703 0.38647,13.6676 -2.07591,3.16823 -5.93388,3.30909 -8.04591,0.29375 z m 5.85417,-4.15409 c 0.3484,-1.85714 0.13987,-4.66964 -0.46341,-6.25 -1.05668,-2.76811 -1.1491,-2.80227 -2.52216,-0.93227 -1.52104,2.07152 -1.76981,4.67145 -0.79501,8.30887 0.90026,3.35933 3.05974,2.71581 3.78058,-1.1266 z m 18.58913,5.40416 c 0,-0.58974 1.8,-3.02502 4,-5.41173 2.2,-2.38672 4,-5.05011 4,-5.91864 0,-2.39157 -2.14687,-3.21681 -3.51195,-1.34997 -1.65999,2.27019 -3.48805,2.07524 -3.48805,-0.37197 0,-4.13576 8.77989,-4.59718 10.33556,-0.54317 0.80848,2.10686 -0.61182,5.62273 -3.2208,7.97291 -2.91289,2.62395 -2.65127,3.59501 0.96857,3.59501 2.01992,0 2.94112,0.43112 2.671,1.25 -0.5228,1.58487 -11.75433,2.32785 -11.75433,0.77756 z m -81,-5.52756 c 0,-1.16667 1.33333,-1.5 6,-1.5 4.66667,0 6,0.33333 6,1.5 0,1.16667 -1.33333,1.5 -6,1.5 -4.66667,0 -6,-0.33333 -6,-1.5 z m -84.957368,-3.25 c 0.0234,-0.9625 1.82484,-3.775 4.00309,-6.25 l 3.96045,-4.5 -3.50309,-0.31037 c -2.72357,-0.2413 -3.50309,-0.75214 -3.50309,-2.29569 0,-1.81156 0.58381,-1.95944 6.6703,-1.68963 4.06623,0.18025 6.82504,0.76417 7.06667,1.4957 0.218,0.66001 -1.43363,3.18533 -3.6703,5.61183 -2.23667,2.4265 -4.06667,4.699 -4.06667,5.04999 0,0.35099 1.8,0.63817 4,0.63817 3.33333,0 4,0.33333 4,2 0,1.82222 -0.66667,2 -7.5,2 -6.49243,0 -7.49427,-0.2351 -7.45736,-1.75 z m 84.957368,-1.75 c 0,-1.16667 1.33333,-1.5 6,-1.5 4.66667,0 6,0.33333 6,1.5 0,1.16667 -1.33333,1.5 -6,1.5 -4.66667,0 -6,-0.33333 -6,-1.5 z M 39.131762,231.23249 c -1.13992,-1.44917 -2.07258,-3.49463 -2.07258,-4.54545 0,-2.90992 4.32216,-6.60503 8.63827,-7.38504 5.31139,-0.95989 7.39479,-2.18493 6.7175,-3.9499 -0.64774,-1.688 -6.87465,-2.07224 -7.85577,-0.48475 -0.75579,1.2229 -6.5,1.34208 -6.5,0.13486 0,-2.20287 4.28077,-5.96495 7.46763,-6.56281 4.38855,-0.8233 11.20738,0.94279 12.40116,3.21191 0.49654,0.94382 1.08259,6.32854 1.30235,11.96604 l 0.39955,10.25 -2.70201,0 c -1.48611,0 -2.90572,-0.5625 -3.15469,-1.25 -0.36215,-1 -0.8761,-1 -2.56977,0 -1.16439,0.6875 -3.89053,1.25 -6.05807,1.25 -3.06645,0 -4.40092,-0.5847 -6.01357,-2.63486 z m 11.18156,-2.61514 c 0.90001,-0.6875 1.94715,-2.53668 2.32696,-4.10929 0.67857,-2.80956 0.63169,-2.84669 -2.69526,-2.13453 -5.52564,1.18281 -7.34849,3.63117 -4.68584,6.29382 1.53376,1.53376 2.9998,1.51926 5.05414,-0.05 z m -48.2541402,-0.75 c 0,-0.55 0.45,-1 1,-1 0.55,0 1,0.45 1,1 0,0.55 -0.45,1 -1,1 -0.55,0 -1,-0.45 -1,-1 z m 142.0000082,-4 c -1.11111,-1.11111 -2,-3.33333 -2,-5 0,-3.03405 2.9384,-6.97102 5.25,-7.03412 1.26654,-0.0346 37.25,-54.55863 37.25,-56.44319 0,-0.56248 0.77347,-1.69769 1.71882,-2.52269 0.94536,-0.825 16.83586,-24.62449 35.31224,-52.887752 23.7078,-36.26576 33.28083,-51.70036 32.53118,-52.45001 -3.09756,-3.09755 1.37461,-10.66223 6.30341,-10.66223 3.47427,0 7.81573,5.38115 7.43067,9.21016 -0.29166,2.90028 1.00113,3.73089 82.20368,52.81613 78.42207,47.404502 82.68662,49.840862 86.27552,49.289722 6.99224,-1.07378 10.17529,5.29857 5.57071,11.15234 -1.90287,2.4191 -2.61343,2.66458 -6.09949,2.10713 -3.04291,-0.48658 -35.4409,6.02881 -141.59622,28.47568 -75.70779,16.00864 -137.8295,29.60805 -138.04825,30.22091 -0.88628,2.48304 -5.16723,5.72792 -7.55682,5.72792 -1.4,0 -3.44545,-0.9 -4.54545,-2 z m 7.47852,-2.62138 c 1.94909,-1.94909 1.65659,-4.26429 -0.72852,-5.76632 -3.4649,-2.18203 -7.36659,2.73491 -4.71013,5.93574 1.57407,1.89664 3.43042,1.83881 5.43865,-0.16942 z M 291.75077,188.3873 c 74.14463,-15.66402 135.72057,-28.69741 136.83543,-28.96308 1.68734,-0.4021 2.01259,-1.24971 1.94101,-5.05829 l -0.086,-4.57525 -82.44101,-49.71165 C 271.14992,53.738538 265.24922,50.367348 260.98843,50.367348 l -4.57076,0 -52.6153,80.419042 -52.6153,80.41905 2.18606,2.77563 c 1.20233,1.52659 2.49727,2.80052 2.87764,2.83095 0.38037,0.0304 61.35537,-12.76069 135.5,-28.42472 z m 148.26274,-30.96491 c 1.91068,-2.30222 0.88952,-6.0063 -1.75936,-6.3818 -4.42304,-0.62702 -6.6542,3.22466 -3.62353,6.25533 1.95871,1.95872 3.82585,2.00258 5.38289,0.12647 z M 264.44445,45.631248 c 0.85728,-1.36923 0.63928,-2.1838 -1.03161,-3.85469 -2.48778,-2.48778 -5.90532,-1.89714 -6.88512,1.18994 -1.39339,4.3902 5.40391,6.67816 7.91673,2.66475 z M 8.0591818,221.80833 c 0,-0.58246 0.45,-0.7809 1,-0.44098 0.55,0.33992 1.0000002,0.81648 1.0000002,1.05902 0,0.24254 -0.4500002,0.44098 -1.0000002,0.44098 -0.55,0 -1,-0.47656 -1,-1.05902 z m 5.5427002,-4.87188 c -0.31643,-0.512 -0.11798,-1.21356 0.44099,-1.55902 0.55897,-0.34546 1.01631,0.0734 1.01631,0.9309 0,1.75653 -0.60006,2.01516 -1.4573,0.62812 z m 5.4573,-6.0691 c 0,-0.55 0.45,-1 1,-1 0.55,0 1,0.45 1,1 0,0.55 -0.45,1 -1,1 -0.55,0 -1,-0.45 -1,-1 z m 5.51008,-6.01631 c 0.34546,-0.55897 1.04702,-0.75742 1.55902,-0.44098 1.38704,0.85723 1.12841,1.45729 -0.62812,1.45729 -0.85746,0 -1.27636,-0.45734 -0.9309,-1.01631 z m 17.48992,-2.3799 c 0,-0.21791 1.63603,-3.84121 3.63561,-8.05178 4.65517,-9.80246 6.4105,-9.89036 11.02329,-0.55201 3.89794,7.89116 4.01728,9 0.96859,9 -1.8751,0 -2.80358,-0.99581 -4.42852,-4.74967 l -2.056,-4.74967 -2.03595,4.74967 c -1.66406,3.88209 -2.49909,4.74967 -4.57148,4.74967 -1.39455,0 -2.53554,-0.17829 -2.53554,-0.39621 z m -11.4573,-2.53469 c -0.31643,-0.512 -0.11798,-1.21356 0.44099,-1.55902 0.55897,-0.34546 1.01631,0.0734 1.01631,0.9309 0,1.75653 -0.60006,2.01516 -1.4573,0.62812 z m 383.588428,-1.41111 c -1.45883,-1.75778 -0.21148,-2.96957 1.55104,-1.50681 1.92439,1.5971 2.97811,0.13572 1.55046,-2.1503 -0.75298,-1.20572 -0.83108,-2.13101 -0.21214,-2.51354 1.79272,-1.10796 1.01021,-2.63186 -1.02048,-1.98734 -2.04858,0.65019 -2.80648,-0.88353 -0.99105,-2.00553 1.97515,-1.22071 5.11893,0.60174 4.90259,2.84203 -0.1149,1.18993 0.13334,2.95673 0.55165,3.92623 1.5377,3.56389 -3.81163,6.4322 -6.33207,3.39526 z m 34.92651,-4.79521 c -2.4481,-4.01552 -2.72008,-11.34156 -0.60866,-16.3949 1.61894,-3.87465 4.23179,-4.90636 3.08434,-1.21788 -1.45452,4.67557 -1.72401,12.64214 -0.54818,16.20494 1.60956,4.87701 0.62564,5.59566 -1.9275,1.40784 z m 72.43127,1.0211 c 1.39101,-4.18586 1.72784,-13.82339 0.59655,-17.0686 -1.31609,-3.77535 -0.4774,-5.07179 1.51677,-2.34461 3.09111,4.22736 3.67349,9.41726 1.72275,15.35253 -1.00373,3.05394 -2.45571,5.75331 -3.22661,5.99859 -1.07224,0.34116 -1.21547,-0.11427 -0.60946,-1.93791 z M 36.059182,193.86735 c 0,-0.55 0.47656,-1 1.05902,-1 0.58246,0 0.7809,0.45 0.44098,1 -0.33992,0.55 -0.81648,1 -1.05902,1 -0.24254,0 -0.44098,-0.45 -0.44098,-1 z m 433.127568,-0.66262 c 1.06996,-1.29619 1.09695,-1.75534 0.12244,-2.08333 -2.02286,-0.68084 -1.42978,-3.25405 0.75,-3.25405 1.14843,0 2,0.66667 2,1.56574 0,2.21776 -1.86898,5.43426 -3.15763,5.43426 -0.66866,0 -0.55887,-0.64011 0.28519,-1.66262 z m 26.17009,-1.82027 c -0.0699,-2.46702 0.33752,-3.51711 1.36469,-3.51711 1.044,0 1.37442,0.91086 1.15102,3.17299 -0.43445,4.39907 -2.39317,4.667 -2.51571,0.34412 z m -37.94297,-0.98123 c -6.56076,-4.59534 -1.83563,-18.89857 5.18628,-15.69917 1.35247,0.61623 2.45904,1.80506 2.45904,2.64185 0,1.78502 -2.65191,2.06572 -3.22664,0.34153 -0.55857,-1.67573 -3.77336,-0.21383 -3.77336,1.71591 0,1.12971 0.57177,1.4173 1.94885,0.98024 2.37371,-0.75339 6.05115,2.57923 6.05115,5.48376 0,2.23602 -3.31073,6 -5.27749,6 -0.70263,0 -2.21815,-0.65886 -3.36783,-1.46412 z m 5.00695,-3.03588 c 0.79505,-2.07187 -0.28412,-4.5 -2,-4.5 -0.78342,0 -1.68342,0.675 -2,1.5 -0.79506,2.07187 0.28411,4.5 2,4.5 0.78341,0 1.68341,-0.675 2,-1.5 z m 20.63837,2.5 c -1.46667,-1.46667 -2,-3.33333 -2,-7 0,-3.66667 0.53333,-5.53333 2,-7 4.36197,-4.36197 9,-0.75461 9,7 0,5.20677 -2.31809,9 -5.5,9 -0.825,0 -2.4,-0.9 -3.5,-2 z m 5.5,-4 c 0.84382,-3.8419 -0.27632,-9 -1.95446,-9 -1.62669,0 -2.68786,5.0384 -1.89554,9 0.33,1.65 1.183,3 1.89554,3 0.71255,0 1.59206,-1.35 1.95446,-3 z m 21.0396,4.04376 c -2.59143,-2.86351 -2.43619,-11.59162 0.25404,-14.28184 3.00987,-3.00988 6.73093,-1.73252 8.23576,2.82715 2.85436,8.6488 -3.39653,17.08269 -8.4898,11.45469 z m 4.9604,-7.12709 c 0,-4.14815 -0.35128,-5.41667 -1.5,-5.41667 -1.57524,0 -2.68829,7.26397 -1.56256,10.19756 1.26824,3.30498 3.06256,0.50391 3.06256,-4.78089 z m -110.5,-0.41667 0,-8.5 4.84501,0 c 3.42378,0 5.33049,0.53644 6.5,1.82874 3.51972,3.88924 0.97615,9.17126 -4.41644,9.17126 -2.5873,0 -2.92857,0.34959 -2.92857,3 0,2.33333 -0.44444,3 -2,3 -1.84314,0 -2,-0.66667 -2,-8.5 z m 8.81955,-2.75 c -0.20536,-1.44596 -1.12359,-2.36419 -2.56955,-2.56955 -1.83248,-0.26025 -2.25,0.15726 -2.25,2.25 0,2.09273 0.47682,2.56955 2.56955,2.56955 2.09274,0 2.51025,-0.41752 2.25,-2.25 z m -372.819558,9.85383 c 0,-0.58303 10.03369,-21.97086 10.54892,-22.48608 0.24135,-0.24135 1.26451,0.30842 2.27369,1.22171 1.00918,0.9133 2.23639,1.66054 2.72713,1.66054 0.49075,0 3.45468,-2.53567 6.58651,-5.63483 5.08351,-5.03047 5.63839,-5.97907 5.17341,-8.84437 -0.42404,-2.61308 -0.0366,-3.59042 2.08475,-5.25909 2.52802,-1.98853 2.60559,-2.3802 2.60559,-13.15563 l 0,-11.10608 -3,0 c -1.65,0 -3,-0.33684 -3,-0.74853 0,-1.26644 8.18827,-25.397532 8.50495,-25.06435 0.45557,0.4793 9.49505,24.44463 9.49505,25.17312 0,0.35187 -1.8,0.63976 -4,0.63976 l -4,0 0,10.5141 0,10.51409 3.25,2.95659 3.25,2.95659 14.75,0.0293 14.750008,0.0293 0,-3.5 c 0,-1.925 0.35069,-3.5 0.77932,-3.5 1.12347,0 26.81841,8.8173 26.22068,8.99771 -0.275,0.083 -1.48635,0.33566 -2.69189,0.56146 -1.20555,0.2258 -6.72709,2.21736 -12.2701,4.42569 -5.54301,2.20833 -10.51916,4.01514 -11.05811,4.01514 -0.53894,0 -0.9799,-1.575 -0.9799,-3.5 l 0,-3.5 -14.954558,0 c -14.79926,0 -14.98174,0.0272 -17.57347,2.61892 -2.09867,2.09868 -3.2728,2.51281 -5.91062,2.08475 -2.96791,-0.48162 -3.84598,0.026 -8.92653,5.16008 -3.09916,3.13183 -5.63483,6.10219 -5.63483,6.6008 0,0.4986 0.97677,1.94628 2.17061,3.21706 1.19383,1.27078 1.96861,2.51251 1.72171,2.7594 -0.52203,0.52203 -21.90598,10.55899 -22.49615,10.55899 -0.21789,0 -0.39617,-0.17828 -0.39617,-0.39617 z m 37.42857,-32.17526 c 1.87901,-1.87901 2.00118,-3.59881 0.37143,-5.22857 -2.44481,-2.44481 -7.8,-0.77744 -7.8,2.42857 0,1.64416 2.80748,4.37143 4.5,4.37143 0.74643,0 2.06429,-0.70714 2.92857,-1.57143 z m 348.571438,28.07143 c 0,-1.16667 1.33333,-1.5 6,-1.5 4.66667,0 6,0.33333 6,1.5 0,1.16667 -1.33333,1.5 -6,1.5 -4.66667,0 -6,-0.33333 -6,-1.5 z m 0,-5 c 0,-1.16667 1.33333,-1.5 6,-1.5 4.66667,0 6,0.33333 6,1.5 0,1.16667 -1.33333,1.5 -6,1.5 -4.66667,0 -6,-0.33333 -6,-1.5 z M 95.630602,178.29592 c -1.86504,-1.86505 -2.05417,-5.54582 -0.37142,-7.22857 0.66,-0.66 2.37,-1.2 3.80001,-1.2 4.879948,0 6.802408,5.05887 3.171258,8.34501 -2.296678,2.07847 -4.576078,2.10733 -6.599848,0.0836 z m 5.245008,-3.75569 c 0.25297,-2.13694 -0.0979,-2.67288 -1.749998,-2.67288 -1.49817,0 -2.06643,0.64167 -2.06643,2.33333 0,4.54039 3.284528,4.83261 3.816428,0.33955 z m -21.454988,-5.92288 c 4.40259,-11.31246 6.10847,-11.49997 10.14318,-1.11493 1.64746,4.24043 3.14538,8.08225 3.32871,8.5374 0.18333,0.45514 -0.57384,0.82753 -1.68261,0.82753 -1.13769,0 -2.29249,-0.87131 -2.65072,-2 -0.46912,-1.47804 -1.51304,-2 -4,-2 -2.48697,0 -3.53089,0.52196 -4,2 -0.34913,1.1 -1.47055,2 -2.49204,2 -1.70031,0 -1.58593,-0.69718 1.35348,-8.25 z m 6.44367,-1.27838 c -0.83569,-1.83414 -1.37475,-2.17736 -1.96325,-1.25 -1.39576,2.19948 -0.92076,3.77838 1.1367,3.77838 1.75347,0 1.8475,-0.28764 0.82655,-2.52838 z m 59.194898,-12.47162 c 0,-0.55 0.47656,-1 1.05902,-1 0.58246,0 0.7809,0.45 0.44098,1 -0.33992,0.55 -0.81648,1 -1.05902,1 -0.24254,0 -0.44098,-0.45 -0.44098,-1 z m 8,0 c 0,-0.55 0.47656,-1 1.05902,-1 0.58246,0 0.7809,0.45 0.44098,1 -0.33992,0.55 -0.81648,1 -1.05902,1 -0.24254,0 -0.44098,-0.45 -0.44098,-1 z m 7.5,0 c -0.33992,-0.55 0.11008,-1 1,-1 0.88992,0 1.33992,0.45 1,1 -0.33992,0.55 -0.78992,1 -1,1 -0.21008,0 -0.66008,-0.45 -1,-1 z m 8,0 c -0.33992,-0.55 0.11008,-1 1,-1 0.88992,0 1.33992,0.45 1,1 -0.33992,0.55 -0.78992,1 -1,1 -0.21008,0 -0.66008,-0.45 -1,-1 z m 8,0 c -0.33992,-0.55 0.11008,-1 1,-1 0.88992,0 1.33992,0.45 1,1 -0.33992,0.55 -0.78992,1 -1,1 -0.21008,0 -0.66008,-0.45 -1,-1 z m 274,0 c -0.33992,-0.55 -0.14148,-1 0.44098,-1 0.58246,0 1.05902,0.45 1.05902,1 0,0.55 -0.19844,1 -0.44098,1 -0.24254,0 -0.7191,-0.45 -1.05902,-1 z m 8,0 c -0.33992,-0.55 -0.14148,-1 0.44098,-1 0.58246,0 1.05902,0.45 1.05902,1 0,0.55 -0.19844,1 -0.44098,1 -0.24254,0 -0.7191,-0.45 -1.05902,-1 z m 8,0 c -0.33992,-0.55 -0.14148,-1 0.44098,-1 0.58246,0 1.05902,0.45 1.05902,1 0,0.55 -0.19844,1 -0.44098,1 -0.24254,0 -0.7191,-0.45 -1.05902,-1 z m -330.10671,-14.25 c 3.95266,-5.43204 4.07239,-6.45068 1.20069,-10.21567 l -2.69576,-3.53433 2.81034,0 c 1.77669,0 3.29529,0.77652 4.12883,2.11123 l 1.31849,2.11123 1.47876,-2.11123 c 0.85042,-1.21414 2.56739,-2.11123 4.04075,-2.11123 l 2.56199,0 -2.61869,3.43328 c -1.44028,1.8883 -2.61869,3.71833 -2.61869,4.06672 0,0.34839 1.125,2.10839 2.5,3.91111 3.09503,4.0578 3.10915,4.58889 0.12197,4.58889 -1.34094,0 -3.05287,-0.98125 -3.92543,-2.25 l -1.54741,-2.25 -1.63127,2.25 c -0.96039,1.32466 -2.68626,2.25 -4.19654,2.25 -2.47871,0 -2.51002,-0.0759 -0.92803,-2.25 z m -24.75843,-7.82258 c -1.88747,-1.48468 -2.63486,-3.00082 -2.63486,-5.34501 0,-4.27759 2.53491,-6.47216 9.18053,-7.94792 4.23341,-0.94009 5.31947,-1.58483 5.31947,-3.15788 0,-2.67472 -5.3655,-3.38103 -7.14958,-0.94116 -0.87863,1.2016 -2.00355,1.51744 -3.79931,1.06673 -6.37807,-1.60079 -0.084,-7.60218 7.97296,-7.60218 8.5802,0 9.67785,1.51541 10.38668,14.33977 l 0.58925,10.66103 -3.25,-4e-4 c -1.7875,-2.2e-4 -3.25,-0.46196 -3.25,-1.02608 0,-0.58793 -1.25919,-0.37453 -2.95034,0.5 -4.03194,2.085 -7.28613,1.91412 -10.4148,-0.5469 z m 11.16514,-4.12742 c 0.66,-0.66 1.2,-2.29125 1.2,-3.625 0,-2.20051 -0.29963,-2.36507 -3.23661,-1.77768 -4.49829,0.89966 -6.50255,3.00713 -4.80504,5.05249 1.53122,1.84502 5.16103,2.03081 6.84165,0.35019 z m -74.800008,-20.3 c 0,-0.825 0.6199,-1.5 1.37755,-1.5 0.75766,0 1.94862,-0.68809 2.64658,-1.52908 1.04393,-1.25785 0.80618,-2.72121 -1.34034,-8.250002 -1.43515,-3.6965 -2.89926,-7.50842 -3.25357,-8.47092 -0.50159,-1.36258 -0.1075,-1.75 1.78017,-1.75 2.07247,0 2.69011,0.83462 4.25518,5.75 l 1.83081,5.75 1.93514,-5.75 c 1.62886,-4.8399 2.31056,-5.75 4.307,-5.75 l 2.37185,0 -2.56776,6.75 c -1.41227,3.7125 -3.03083,8.100012 -3.59679,9.750012 -0.56597,1.64999 -1.71005,3.78749 -2.54241,4.74999 -1.89372,2.1898 -7.20341,2.37408 -7.20341,0.25 z m 66.000008,-7.98345 c 0,-0.2659 1.67368,-3.865902 3.71929,-8.000002 4.78728,-9.67494 6.1345,-9.74269 10.76814,-0.54151 1.93191,3.83627 3.51257,7.46616 3.51257,8.06643 0,0.600262 -1.18225,0.948992 -2.62722,0.774962 -2.06896,-0.24918 -2.99591,-1.263172 -4.36231,-4.771912 l -1.73509,-4.45549 -2.08146,4.70549 c -1.69741,3.83728 -2.55311,4.705492 -4.63769,4.705492 -1.40593,0 -2.55623,-0.21756 -2.55623,-0.48346 z M 73.559182,94.867348 c 0.33992,-0.55 0.81648,-1 1.05902,-1 0.24254,0 0.44098,0.45 0.44098,1 0,0.55 -0.47656,1 -1.05902,1 -0.58246,0 -0.7809,-0.45 -0.44098,-1 z m -49.86514,-2.07258 c -2.57793,-2.0278 -3.29954,-5.03172 -2.01368,-8.38262 0.81909,-2.1345 4.87216,-4.14104 10.12882,-5.01445 3.20888,-0.53316 4.25,-1.15804 4.25,-2.55086 0,-1.01459 -0.9,-2.13036 -2,-2.47949 -2.33363,-0.74066 -6,0.21711 -6,1.56739 0,1.20135 -4.70368,1.22109 -5.44423,0.0229 -0.9835,-1.59134 0.59407,-4.11637 3.51575,-5.62723 3.64438,-1.88458 9.24564,-1.86748 12.93329,0.0395 3.31039,1.71187 3.78515,3.53775 4.2247,16.24751 l 0.28532,8.25 -2.7888,0 c -1.54445,0 -3.04317,-0.66288 -3.35889,-1.48562 -0.50429,-1.31418 -0.81488,-1.31418 -2.69112,0 -3.00409,2.10414 -7.95455,1.84097 -11.04116,-0.58696 z m 11.16514,-4.12742 c 0.66,-0.66 1.2,-2.27075 1.2,-3.57945 0,-2.16083 -0.29861,-2.31541 -3.25,-1.68241 -1.7875,0.38338 -3.5875,0.8957 -4,1.13848 -0.92942,0.54701 -0.98679,3.75326 -0.0833,4.65672 1.08654,1.08654 4.83982,0.76017 6.13333,-0.53334 z m 38.7,-1.8 c 0.33992,-0.55 0.81648,-1 1.05902,-1 0.24254,0 0.44098,0.45 0.44098,1 0,0.55 -0.47656,1 -1.05902,1 -0.58246,0 -0.7809,-0.45 -0.44098,-1 z m 0,-8 c 0.33992,-0.55 0.81648,-1 1.05902,-1 0.24254,0 0.44098,0.45 0.44098,1 0,0.55 -0.47656,1 -1.05902,1 -0.58246,0 -0.7809,-0.45 -0.44098,-1 z m 0.0427,-6.9309 c -0.31643,-0.512 -0.11798,-1.21355 0.44099,-1.55902 0.55897,-0.34546 1.01631,0.0734 1.01631,0.93091 0,1.75652 -0.60006,2.01515 -1.4573,0.62811 z m 0,-8 c -0.31643,-0.512 -0.11798,-1.21355 0.44099,-1.55902 0.55897,-0.34546 1.01631,0.0734 1.01631,0.93091 0,1.75652 -0.60006,2.01515 -1.4573,0.62811 z m -47.5427,-1.56822 c 0,-0.34757 1.54572,-3.97747 3.43493,-8.06642 4.68204,-10.13365 6.39893,-10.10418 11.09032,0.19039 1.91111,4.19366 3.47475,7.79366 3.47475,8 0,0.20633 -1.14099,0.37515 -2.53554,0.37515 -2.06896,0 -2.91474,-0.87407 -4.59628,-4.75 l -2.06073,-4.75 -1.77651,4.5 c -1.39892,3.54356 -2.3349,4.56726 -4.40372,4.81642 -1.44497,0.17404 -2.62722,0.032 -2.62722,-0.31554 z m 47.5427,-6.43178 c -0.31643,-0.512 -0.11798,-1.21355 0.44099,-1.55902 0.55897,-0.34546 1.01631,0.0734 1.01631,0.93091 0,1.75652 -0.60006,2.01515 -1.4573,0.62811 z m 0,-8 c -0.31643,-0.512 -0.11798,-1.21355 0.44099,-1.55902 0.55897,-0.34546 1.01631,0.0734 1.01631,0.93091 0,1.75652 -0.60006,2.01515 -1.4573,0.62811 z m 0,-8 c -0.31643,-0.51199 -0.11798,-1.21355 0.44099,-1.55901 0.55897,-0.34547 1.01631,0.0734 1.01631,0.9309 0,1.75652 -0.60006,2.01516 -1.4573,0.62811 z M 259.05919,25.760368 c 0,-3.23982 -0.31672,-3.98546 -1.5,-3.53139 -0.825,0.31658 -1.5,0.20947 -1.5,-0.23802 0,-0.94431 3.33745,-4.1236 4.32874,-4.1236 0.36919,0 0.67126,2.7 0.67126,6 0,3.33333 -0.44444,6 -1,6 -0.55,0 -1,-1.84815 -1,-4.10699 z m 31.44897,-3.3609 c -0.79693,-1.90733 -1.44897,-5.29678 -1.44897,-7.53211 0,-4.65406 2.34072,-11 4.05738,-11 0.80108,0 0.90074,0.84996 0.32245,2.75 -0.46035,1.5125 -0.83699,5.225 -0.83699,8.25 0,3.025 0.37664,6.7375 0.83699,8.25 1.24912,4.10411 -1.16296,3.5133 -2.93086,-0.71789 z m 73.57578,0.90279 c 1.30868,-3.44209 1.2409,-14.07001 -0.10577,-16.58629 -0.59456,-1.11095 -0.83044,-2.27049 -0.52417,-2.57676 1.1334,-1.13339 3.39213,1.89551 4.58156,6.14376 1.02808,3.67193 0.96307,5.28089 -0.40329,9.981 -1.00967,3.47313 -2.17918,5.60339 -3.07626,5.60339 -1.1404,0 -1.24051,-0.54396 -0.47207,-2.5651 z m -52.60161,-0.19275 c 0.43385,-1.36694 0.29499,-2.24215 -0.35575,-2.24215 -0.58707,0 -1.06739,-0.675 -1.06739,-1.5 0,-0.83334 0.88889,-1.5 2,-1.5 2.51817,0 2.75802,4.126 0.35575,6.11971 -1.46163,1.21305 -1.56521,1.11559 -0.93261,-0.87756 z m 25.87451,-1.72505 c -0.0699,-2.46701 0.33752,-3.5171 1.36469,-3.5171 1.044,0 1.37442,0.91086 1.15102,3.17298 -0.43445,4.39908 -2.39317,4.66701 -2.51571,0.34412 z m -38.34598,-1.35515 c -1.36939,-1.10887 -1.96903,-2.32485 -1.5115,-3.06515 0.57521,-0.93071 1.20225,-0.8254 2.59609,0.43601 1.01074,0.91471 2.31607,1.36747 2.90073,1.00613 1.66446,-1.02869 1.24618,-4.33574 -0.68699,-5.4315 -1.64891,-0.93463 -1.64008,-1.07316 0.15278,-2.39799 1.04738,-0.77396 1.58278,-1.9238 1.19098,-2.55775 -0.87383,-1.41389 -3.59376,-1.52871 -3.59376,-0.1517 0,0.55 -0.675,1 -1.5,1 -2.42297,0 -1.71923,-2.94299 1,-4.18196 1.87016,-0.8521 3.12984,-0.8521 5,0 2.55594,1.16457 3.39501,4.51077 1.43486,5.72222 -0.69923,0.43214 -0.48675,1.29741 0.61852,2.51872 2.24029,2.4755 1.22778,6.26406 -2.07646,7.76958 -3.21376,1.46428 -2.83766,1.50966 -5.52525,-0.66661 z m 55.04833,1.08788 c -2.76625,-0.88502 -4,-3.59494 -4,-8.78598 0,-5.59925 1.9313,-8.46385 5.7063,-8.46385 2.77045,0 4.37489,2.167 4.96863,6.71078 0.84183,6.44246 -2.58209,11.84851 -6.67493,10.53905 z m 2.80239,-8.66225 c 0.26748,-5.08993 0.0943,-5.71497 -1.5,-5.41281 -1.97476,0.37427 -2.91496,5.24842 -1.83919,9.53464 1.08175,4.31 3.02196,1.91505 3.33919,-4.12183 z m -110.80239,-0.0876 0,-8.5 4.56574,0 c 6.11217,0 8.43426,1.3666 8.43426,4.96375 0,3.7008 -2.34906,6.03625 -6.07143,6.03625 -2.5873,0 -2.92857,0.34959 -2.92857,3 0,2.33333 -0.44444,3 -2,3 -1.84314,0 -2,-0.66667 -2,-8.5 z m 8.72186,-1.62186 c 1.69011,-1.69011 0.37618,-3.87814 -2.32885,-3.87814 -1.88588,0 -2.39301,0.5298 -2.39301,2.5 0,2.69389 2.63658,3.46342 4.72186,1.37814 z m 68.27814,8.98369 c 0,-0.62599 1.8,-3.09094 4,-5.47766 2.2,-2.38672 4,-4.81366 4,-5.39321 0,-1.53917 -3.3084,-2.56576 -3.77336,-1.17087 -0.44529,1.33586 -4.22664,1.63548 -4.22664,0.33489 0,-1.41945 3.55158,-4.15498 5.39448,-4.15498 6.17305,0 7.41886,5.53389 2.40935,10.70239 l -3.19616,3.29761 3.19616,0 c 2.17437,0 3.19617,0.47954 3.19617,1.5 0,1.15151 -1.27778,1.5 -5.5,1.5 -3.44512,0 -5.5,-0.42524 -5.5,-1.13817 z m -55,-4.36183 c 0,-1.16667 1.33333,-1.5 6,-1.5 4.66667,0 6,0.33333 6,1.5 0,1.16666 -1.33333,1.5 -6,1.5 -4.66667,0 -6,-0.33334 -6,-1.5 z m 0,-5 c 0,-1.16667 1.33333,-1.5 6,-1.5 4.66667,0 6,0.33333 6,1.5 0,1.16666 -1.33333,1.5 -6,1.5 -4.66667,0 -6,-0.33334 -6,-1.5 z"
       id="path3118"
       inkscape:connector-curvature="0" />
  </g>
  <g
     inkscape:groupmode="layer"
     id="layer2"
     inkscape:label="solution"
     style="display:inline">
    <path
       style="fill:#0000ff;fill-opacity:0.54450259;stroke:#000000;stroke-width:2.4000001;stroke-linecap:butt;stroke-linejoin:miter;stroke-miterlimit:4;stroke-dasharray:none;stroke-dashoffset:10;marker-end:url(#Arrow2Lend)"
       d="m 241.08346,49.985006 -93.28,144.885004"
       stroke-miterlimit="4"
       id="path13"
       inkscape:connector-curvature="0" />
    <path
       d="m 161.05346,175.29001 c 0.0725,-0.56419 0.0591,-1.0258 -0.0299,-1.0258 -0.0889,0 -0.52439,0.24645 -0.96769,0.54768 -0.44329,0.30122 -0.80598,0.49544 -0.80598,0.43159 0,-0.0639 2.5822,-4.1247 5.7382,-9.0241 4.1805,-6.4898 5.6461,-8.9269 5.399,-8.9778 -0.49897,-0.10271 -0.43277,-0.90199 0.0747,-0.90199 0.22765,0 0.44998,0.10819 0.49405,0.24041 0.0441,0.13222 15.626,-23.905 34.625,-53.417 l 34.545,-53.657004 0.80984,0.53551 c 0.44542,0.29453 0.80985,0.61803 0.80985,0.7189 0,0.19205 -80.249,124.960004 -80.615,125.340004 -0.13622,0.14017 -0.1636,-0.14404 -0.078,-0.80985 z m 35.142,-54.351 c 0.6856,-0.68559 0.84628,-1.6753 0.30566,-1.8828 -0.83267,-0.31952 -2.1833,1.509 -1.6179,2.1903 0.38093,0.459 0.59612,0.40857 1.3122,-0.30752 z"
       stroke-miterlimit="4"
       id="path17"
       inkscape:connector-curvature="0"
       style="fill:#0000ff;fill-opacity:0.54450259;stroke-width:2.4000001;stroke-miterlimit:4;stroke-dasharray:none;stroke-dashoffset:10" />
    <g
       id="g6361">
      <path
         style="fill:#0000ff;fill-opacity:0.54450259;stroke-width:2.4000001;stroke-miterlimit:4;stroke-dasharray:none;stroke-dashoffset:10"
         inkscape:connector-curvature="0"
         id="path15"
         stroke-miterlimit="4"
         d="m 147.52346,193.42001 c 0.26769,-0.95517 1.4679,-6.2024 2.6671,-11.66 1.1992,-5.4581 2.3774,-10.26 2.6182,-10.672 0.24078,-0.41143 1.5773,0.60615 2.97,2.2613 2.1412,2.5447 2.7734,2.8134 4.0944,1.7404 1.3153,-1.0684 1.4669,-1.014 0.95877,0.34424 -0.66635,1.7813 2.7613,3.845 6.3865,3.845 1.4229,0 -1.2799,2.5384 -8.4532,7.9391 -5.7997,4.3665 -10.811,7.9391 -11.137,7.9391 -0.32552,0 -0.37284,-0.7815 -0.10515,-1.7367 z" />
      <path
         style="fill:#0000ff;fill-opacity:0.54450259;stroke-width:2.4000001;stroke-miterlimit:4;stroke-dasharray:none;stroke-dashoffset:10"
         inkscape:connector-curvature="0"
         id="path19"
         stroke-miterlimit="4"
         d="m 161.05346,175.29001 c 0.0725,-0.56419 0.0591,-1.0258 -0.0299,-1.0258 -0.0889,0 -0.52439,0.24645 -0.96769,0.54768 -0.44329,0.30122 -0.80598,0.49544 -0.80598,0.43159 0,-0.0639 2.5822,-4.1247 5.7382,-9.0241 4.1805,-6.4898 5.6461,-8.9269 5.399,-8.9778 -0.49897,-0.10271 -0.43277,-0.90199 0.0747,-0.90199 0.22765,0 0.44998,0.10819 0.49405,0.24041 0.0441,0.13222 15.626,-23.905 34.625,-53.417 l 34.545,-53.657004 0.80984,0.53551 c 0.44542,0.29453 0.80985,0.61803 0.80985,0.7189 0,0.19205 -80.249,124.960004 -80.615,125.340004 -0.13622,0.14017 -0.1636,-0.14404 -0.078,-0.80985 z m 35.142,-54.351 c 0.6856,-0.68559 0.84628,-1.6753 0.30566,-1.8828 -0.83267,-0.31952 -2.1833,1.509 -1.6179,2.1903 0.38093,0.459 0.59612,0.40857 1.3122,-0.30752 z" />
    </g>
    <path
       inkscape:connector-curvature="0"
       id="path23"
       d="M 279.92914,45.953548 428.74506,132.82497"
       style="fill:#0000ff;fill-opacity:0.54450259;stroke:#000000;stroke-width:2.4000001;stroke-linecap:butt;stroke-linejoin:miter;stroke-miterlimit:4;stroke-dasharray:none;stroke-dashoffset:10;marker-end:url(#Arrow2Lend)" />
    <path
       style="fill:#0000ff;fill-opacity:0.54450259;stroke-width:2.4000001;stroke-miterlimit:4;stroke-dasharray:none;stroke-dashoffset:10"
       inkscape:connector-curvature="0"
       id="path27"
       d="m 408.60574,120.44165 c -0.56682,-0.0478 -1.02741,-0.0143 -1.02352,0.0746 0.004,0.0888 0.26909,0.51314 0.58937,0.94288 0.32026,0.42973 0.53012,0.7836 0.46633,0.78639 -0.0638,0.003 -4.23341,-2.39983 -9.26581,-5.33912 -6.66597,-3.89344 -9.16468,-5.25134 -9.20475,-5.00225 -0.0808,0.50297 -0.88226,0.4717 -0.90439,-0.0353 -0.01,-0.22743 0.0885,-0.45427 0.21863,-0.50406 0.13017,-0.0498 -24.56385,-14.568413 -54.87648,-32.262035 l -55.11276,-32.171635 0.49967,-0.832427 c 0.27482,-0.457844 0.58212,-0.836038 0.68289,-0.840438 0.19187,-0.0084 128.34148,74.721945 128.73708,75.071025 0.14598,0.12997 -0.13676,0.16972 -0.80567,0.11325 z M 352.77359,87.703854 c -0.71484,-0.655042 -1.71062,-0.772399 -1.89434,-0.223243 -0.28289,0.845815 1.6028,2.115401 2.25879,1.520821 0.44195,-0.400589 0.38218,-0.613374 -0.36446,-1.297537 z" />
    <g
       id="g6365">
      <path
         d="m 427.30865,133.16796 c -0.96594,-0.22578 -6.26052,-1.19596 -11.76524,-2.15596 -5.50521,-0.95998 -10.35393,-1.92761 -10.77605,-2.15021 -0.42154,-0.2226 0.53678,-1.60223 2.1296,-3.06581 2.44888,-2.25016 2.68975,-2.89347 1.56015,-4.16641 -1.12475,-1.26745 -1.07702,-1.42128 0.30209,-0.97288 1.80867,0.58802 3.7209,-2.92638 3.56277,-6.54813 -0.0621,-1.42155 2.59181,1.16795 8.30026,8.09885 4.61533,5.60372 8.40312,10.45441 8.41734,10.7801 0.0142,0.32521 -0.7645,0.40658 -1.73046,0.18081 z"
         id="path25"
         inkscape:connector-curvature="0"
         style="fill:#0000ff;fill-opacity:0.54450259;stroke-width:2.4000001;stroke-miterlimit:4;stroke-dasharray:none;stroke-dashoffset:10" />
      <path
         d="m 408.60574,120.44165 c -0.56682,-0.0478 -1.02741,-0.0143 -1.02352,0.0746 0.004,0.0888 0.26909,0.51314 0.58937,0.94288 0.32026,0.42973 0.53012,0.7836 0.46633,0.78639 -0.0638,0.003 -4.23341,-2.39983 -9.26581,-5.33912 -6.66597,-3.89344 -9.16468,-5.25134 -9.20475,-5.00225 -0.0808,0.50297 -0.88226,0.4717 -0.90439,-0.0353 -0.01,-0.22743 0.0885,-0.45427 0.21863,-0.50406 0.13017,-0.0498 -24.56385,-14.568413 -54.87648,-32.262035 l -55.11276,-32.171635 0.49967,-0.832427 c 0.27482,-0.457844 0.58212,-0.836038 0.68289,-0.840438 0.19187,-0.0084 128.34148,74.721945 128.73708,75.071025 0.14598,0.12997 -0.13676,0.16972 -0.80567,0.11325 z M 352.77359,87.703854 c -0.71484,-0.655042 -1.71062,-0.772399 -1.89434,-0.223243 -0.28289,0.845815 1.6028,2.115401 2.25879,1.520821 0.44195,-0.400589 0.38218,-0.613374 -0.36446,-1.297537 z"
         id="path29"
         inkscape:connector-curvature="0"
         style="fill:#0000ff;fill-opacity:0.54450259;stroke-width:2.4000001;stroke-miterlimit:4;stroke-dasharray:none;stroke-dashoffset:10" />
    </g>
    <g
       inkscape:transform-center-y="-101.67922"
       inkscape:transform-center-x="36.614421"
       ns0:text=" \\bf \\Large $\\vec{r}^{P_2/P_1}$"
       ns0:preamble="/home/john/Desktop/anyname.ini"
       id="g6296"
       transform="matrix(1.6336639,-2.7188734,2.7188734,1.6336639,-556.86605,515.67161)">
      <defs
         id="defs6298">
        <g
           id="g6300">
          <symbol
             overflow="visible"
             id="textext-96b68284-0"
             style="overflow:visible">
            <path
               style="stroke:none"
               d=""
               id="path6303"
               inkscape:connector-curvature="0" />
          </symbol>
          <symbol
             overflow="visible"
             id="textext-96b68284-1"
             style="overflow:visible">
            <path
               style="stroke:none"
               d="M 7.671875,-8.5625 C 7.5,-8.40625 6.96875,-7.90625 6.96875,-7.703125 c 0,0.140625 0.125,0.265625 0.28125,0.265625 0.125,0 0.1875,-0.078125 0.28125,-0.21875 0.34375,-0.4375 0.734375,-0.703125 1.0625,-0.890625 0.140625,-0.09375 0.234375,-0.125 0.234375,-0.28125 0,-0.140625 -0.109375,-0.203125 -0.1875,-0.28125 C 8.234375,-9.375 8.140625,-9.765625 8.09375,-9.9375 8.046875,-10.0625 8,-10.234375 7.796875,-10.234375 c -0.078125,0 -0.25,0.0625 -0.25,0.28125 0,0.125 0.078125,0.46875 0.359375,0.859375 l -4.828125,0 c -0.234375,0 -0.484375,0 -0.484375,0.265625 0,0.265625 0.265625,0.265625 0.484375,0.265625 z m 0,0"
               id="path6306"
               inkscape:connector-curvature="0" />
          </symbol>
          <symbol
             overflow="visible"
             id="textext-96b68284-2"
             style="overflow:visible">
            <path
               style="stroke:none"
               d="M 5.578125,-5.859375 C 5.140625,-5.78125 4.90625,-5.46875 4.90625,-5.15625 c 0,0.34375 0.265625,0.46875 0.46875,0.46875 0.40625,0 0.734375,-0.34375 0.734375,-0.78125 0,-0.453125 -0.4375,-0.859375 -1.15625,-0.859375 -0.578125,0 -1.234375,0.265625 -1.84375,1.140625 -0.09375,-0.765625 -0.671875,-1.140625 -1.25,-1.140625 -0.546875,0 -0.84375,0.4375 -1.015625,0.75 -0.234375,0.515625 -0.453125,1.375 -0.453125,1.453125 0,0.046875 0.046875,0.125 0.15625,0.125 0.109375,0 0.125,-0.015625 0.21875,-0.34375 0.203125,-0.859375 0.484375,-1.6875 1.0625,-1.6875 0.34375,0 0.4375,0.234375 0.4375,0.65625 0,0.3125 -0.140625,0.875 -0.25,1.3125 L 1.625,-2.515625 c -0.0625,0.28125 -0.21875,0.921875 -0.296875,1.1875 -0.09375,0.359375 -0.25,1.046875 -0.25,1.109375 0,0.203125 0.15625,0.359375 0.375,0.359375 0.15625,0 0.421875,-0.09375 0.515625,-0.390625 0.046875,-0.109375 0.5625,-2.28125 0.65625,-2.609375 0.078125,-0.3125 0.15625,-0.609375 0.234375,-0.921875 0.046875,-0.203125 0.109375,-0.4375 0.15625,-0.625 C 3.0625,-4.53125 3.4375,-5.234375 3.796875,-5.546875 3.96875,-5.703125 4.34375,-6.03125 4.9375,-6.03125 c 0.21875,0 0.453125,0.03125 0.640625,0.171875 z m 0,0"
               id="path6309"
               inkscape:connector-curvature="0" />
          </symbol>
          <symbol
             overflow="visible"
             id="textext-96b68284-3"
             style="overflow:visible">
            <path
               style="stroke:none"
               d=""
               id="path6312"
               inkscape:connector-curvature="0" />
          </symbol>
          <symbol
             overflow="visible"
             id="textext-96b68284-4"
             style="overflow:visible">
            <path
               style="stroke:none"
               d="m 3.015625,-3.15625 1.703125,0 c 1.40625,0 2.796875,-1.03125 2.796875,-2.140625 0,-0.78125 -0.65625,-1.515625 -1.96875,-1.515625 l -3.21875,0 c -0.1875,0 -0.296875,0 -0.296875,0.1875 0,0.125 0.078125,0.125 0.28125,0.125 0.125,0 0.3125,0.015625 0.421875,0.015625 0.171875,0.03125 0.21875,0.046875 0.21875,0.171875 0,0.03125 0,0.0625 -0.03125,0.1875 l -1.34375,5.34375 c -0.09375,0.390625 -0.109375,0.46875 -0.90625,0.46875 -0.15625,0 -0.265625,0 -0.265625,0.1875 C 0.40625,0 0.515625,0 0.546875,0 0.828125,0 1.53125,-0.03125 1.8125,-0.03125 c 0.21875,0 0.4375,0.015625 0.640625,0.015625 0.21875,0 0.4375,0.015625 0.640625,0.015625 0.078125,0 0.203125,0 0.203125,-0.203125 0,-0.109375 -0.09375,-0.109375 -0.28125,-0.109375 -0.359375,0 -0.640625,0 -0.640625,-0.171875 0,-0.0625 0.015625,-0.109375 0.03125,-0.171875 z M 3.734375,-6.125 C 3.828125,-6.46875 3.84375,-6.5 4.28125,-6.5 l 0.953125,0 c 0.828125,0 1.359375,0.265625 1.359375,0.953125 0,0.390625 -0.203125,1.25 -0.59375,1.609375 -0.5,0.453125 -1.09375,0.53125 -1.53125,0.53125 l -1.40625,0 z m 0,0"
               id="path6315"
               inkscape:connector-curvature="0" />
          </symbol>
          <symbol
             overflow="visible"
             id="textext-96b68284-5"
             style="overflow:visible">
            <path
               style="stroke:none"
               d="m 4.375,-7.09375 c 0.046875,-0.140625 0.046875,-0.171875 0.046875,-0.1875 0,-0.109375 -0.078125,-0.203125 -0.1875,-0.203125 -0.078125,0 -0.140625,0.03125 -0.171875,0.09375 l -3.46875,9.5 C 0.546875,2.25 0.546875,2.28125 0.546875,2.296875 0.546875,2.40625 0.640625,2.5 0.75,2.5 0.875,2.5 0.90625,2.421875 0.96875,2.25 z m 0,0"
               id="path6318"
               inkscape:connector-curvature="0" />
          </symbol>
          <symbol
             overflow="visible"
             id="textext-96b68284-6"
             style="overflow:visible">
            <path
               style="stroke:none"
               d=""
               id="path6321"
               inkscape:connector-curvature="0" />
          </symbol>
          <symbol
             overflow="visible"
             id="textext-96b68284-7"
             style="overflow:visible">
            <path
               style="stroke:none"
               d="m 3.515625,-1.265625 -0.234375,0 c -0.015625,0.15625 -0.09375,0.5625 -0.1875,0.625 -0.046875,0.046875 -0.578125,0.046875 -0.6875,0.046875 l -1.28125,0 c 0.734375,-0.640625 0.984375,-0.84375 1.390625,-1.171875 0.515625,-0.40625 1,-0.84375 1,-1.5 0,-0.84375 -0.734375,-1.359375 -1.625,-1.359375 -0.859375,0 -1.453125,0.609375 -1.453125,1.25 0,0.34375 0.296875,0.390625 0.375,0.390625 0.15625,0 0.359375,-0.125 0.359375,-0.375 0,-0.125 -0.046875,-0.375 -0.40625,-0.375 C 0.984375,-4.21875 1.453125,-4.375 1.78125,-4.375 c 0.703125,0 1.0625,0.546875 1.0625,1.109375 0,0.609375 -0.4375,1.078125 -0.65625,1.328125 L 0.515625,-0.265625 C 0.4375,-0.203125 0.4375,-0.1875 0.4375,0 l 2.875,0 z m 0,0"
               id="path6324"
               inkscape:connector-curvature="0" />
          </symbol>
          <symbol
             overflow="visible"
             id="textext-96b68284-8"
             style="overflow:visible">
            <path
               style="stroke:none"
               d="m 2.328125,-4.4375 c 0,-0.1875 0,-0.1875 -0.203125,-0.1875 -0.453125,0.4375 -1.078125,0.4375 -1.359375,0.4375 l 0,0.25 c 0.15625,0 0.625,0 1,-0.1875 l 0,3.546875 c 0,0.234375 0,0.328125 -0.6875,0.328125 l -0.265625,0 0,0.25 c 0.125,0 0.984375,-0.03125 1.234375,-0.03125 0.21875,0 1.09375,0.03125 1.25,0.03125 l 0,-0.25 -0.265625,0 c -0.703125,0 -0.703125,-0.09375 -0.703125,-0.328125 z m 0,0"
               id="path6327"
               inkscape:connector-curvature="0" />
          </symbol>
        </g>
      </defs>
      <g
         id="textext-96b68284-9">
        <g
           style="fill:#000000;fill-opacity:1"
           id="g6330">
          <use
             xlink:href="#textext-96b68284-1"
             x="222.95799"
             y="137.48"
             id="use6332"
             width="744.09448"
             height="1052.3622" />
        </g>
        <g
           style="fill:#000000;fill-opacity:1"
           id="g6334">
          <use
             xlink:href="#textext-96b68284-2"
             x="223.42569"
             y="137.48"
             id="use6336"
             width="744.09448"
             height="1052.3622" />
        </g>
        <g
           style="fill:#000000;fill-opacity:1"
           id="g6338">
          <use
             xlink:href="#textext-96b68284-4"
             x="230.153"
             y="132.274"
             id="use6340"
             width="744.09448"
             height="1052.3622" />
        </g>
        <g
           style="fill:#000000;fill-opacity:1"
           id="g6342">
          <use
             xlink:href="#textext-96b68284-7"
             x="236.549"
             y="133.769"
             id="use6344"
             width="744.09448"
             height="1052.3622" />
        </g>
        <g
           style="fill:#000000;fill-opacity:1"
           id="g6346">
          <use
             xlink:href="#textext-96b68284-5"
             x="241.01801"
             y="132.274"
             id="use6348"
             width="744.09448"
             height="1052.3622" />
          <use
             xlink:href="#textext-96b68284-4"
             x="245.9993"
             y="132.274"
             id="use6350"
             width="744.09448"
             height="1052.3622" />
        </g>
        <g
           style="fill:#000000;fill-opacity:1"
           id="g6352">
          <use
             xlink:href="#textext-96b68284-8"
             x="252.396"
             y="133.769"
             id="use6354"
             width="744.09448"
             height="1052.3622" />
        </g>
      </g>
    </g>
    <g
       transform="matrix(2.7592185,1.5294598,-1.5294598,2.7592185,-96.379732,-662.76993)"
       id="g6599"
       ns0:preamble="/home/john/Desktop/anyname.ini"
       ns0:text=" \\bf \\Large $\\vec{r}^{P_3/P_1}$">
      <defs
         id="defs6601">
        <g
           id="g6603">
          <symbol
             style="overflow:visible"
             id="textext-e6ec9472-0"
             overflow="visible">
            <path
               inkscape:connector-curvature="0"
               id="path6606"
               d=""
               style="stroke:none" />
          </symbol>
          <symbol
             style="overflow:visible"
             id="textext-e6ec9472-1"
             overflow="visible">
            <path
               inkscape:connector-curvature="0"
               id="path6609"
               d="M 7.671875,-8.5625 C 7.5,-8.40625 6.96875,-7.90625 6.96875,-7.703125 c 0,0.140625 0.125,0.265625 0.28125,0.265625 0.125,0 0.1875,-0.078125 0.28125,-0.21875 0.34375,-0.4375 0.734375,-0.703125 1.0625,-0.890625 0.140625,-0.09375 0.234375,-0.125 0.234375,-0.28125 0,-0.140625 -0.109375,-0.203125 -0.1875,-0.28125 C 8.234375,-9.375 8.140625,-9.765625 8.09375,-9.9375 8.046875,-10.0625 8,-10.234375 7.796875,-10.234375 c -0.078125,0 -0.25,0.0625 -0.25,0.28125 0,0.125 0.078125,0.46875 0.359375,0.859375 l -4.828125,0 c -0.234375,0 -0.484375,0 -0.484375,0.265625 0,0.265625 0.265625,0.265625 0.484375,0.265625 z m 0,0"
               style="stroke:none" />
          </symbol>
          <symbol
             style="overflow:visible"
             id="textext-e6ec9472-2"
             overflow="visible">
            <path
               inkscape:connector-curvature="0"
               id="path6612"
               d="M 5.578125,-5.859375 C 5.140625,-5.78125 4.90625,-5.46875 4.90625,-5.15625 c 0,0.34375 0.265625,0.46875 0.46875,0.46875 0.40625,0 0.734375,-0.34375 0.734375,-0.78125 0,-0.453125 -0.4375,-0.859375 -1.15625,-0.859375 -0.578125,0 -1.234375,0.265625 -1.84375,1.140625 -0.09375,-0.765625 -0.671875,-1.140625 -1.25,-1.140625 -0.546875,0 -0.84375,0.4375 -1.015625,0.75 -0.234375,0.515625 -0.453125,1.375 -0.453125,1.453125 0,0.046875 0.046875,0.125 0.15625,0.125 0.109375,0 0.125,-0.015625 0.21875,-0.34375 0.203125,-0.859375 0.484375,-1.6875 1.0625,-1.6875 0.34375,0 0.4375,0.234375 0.4375,0.65625 0,0.3125 -0.140625,0.875 -0.25,1.3125 L 1.625,-2.515625 c -0.0625,0.28125 -0.21875,0.921875 -0.296875,1.1875 -0.09375,0.359375 -0.25,1.046875 -0.25,1.109375 0,0.203125 0.15625,0.359375 0.375,0.359375 0.15625,0 0.421875,-0.09375 0.515625,-0.390625 0.046875,-0.109375 0.5625,-2.28125 0.65625,-2.609375 0.078125,-0.3125 0.15625,-0.609375 0.234375,-0.921875 0.046875,-0.203125 0.109375,-0.4375 0.15625,-0.625 C 3.0625,-4.53125 3.4375,-5.234375 3.796875,-5.546875 3.96875,-5.703125 4.34375,-6.03125 4.9375,-6.03125 c 0.21875,0 0.453125,0.03125 0.640625,0.171875 z m 0,0"
               style="stroke:none" />
          </symbol>
          <symbol
             style="overflow:visible"
             id="textext-e6ec9472-3"
             overflow="visible">
            <path
               inkscape:connector-curvature="0"
               id="path6615"
               d=""
               style="stroke:none" />
          </symbol>
          <symbol
             style="overflow:visible"
             id="textext-e6ec9472-4"
             overflow="visible">
            <path
               inkscape:connector-curvature="0"
               id="path6618"
               d="m 3.015625,-3.15625 1.703125,0 c 1.40625,0 2.796875,-1.03125 2.796875,-2.140625 0,-0.78125 -0.65625,-1.515625 -1.96875,-1.515625 l -3.21875,0 c -0.1875,0 -0.296875,0 -0.296875,0.1875 0,0.125 0.078125,0.125 0.28125,0.125 0.125,0 0.3125,0.015625 0.421875,0.015625 0.171875,0.03125 0.21875,0.046875 0.21875,0.171875 0,0.03125 0,0.0625 -0.03125,0.1875 l -1.34375,5.34375 c -0.09375,0.390625 -0.109375,0.46875 -0.90625,0.46875 -0.15625,0 -0.265625,0 -0.265625,0.1875 C 0.40625,0 0.515625,0 0.546875,0 0.828125,0 1.53125,-0.03125 1.8125,-0.03125 c 0.21875,0 0.4375,0.015625 0.640625,0.015625 0.21875,0 0.4375,0.015625 0.640625,0.015625 0.078125,0 0.203125,0 0.203125,-0.203125 0,-0.109375 -0.09375,-0.109375 -0.28125,-0.109375 -0.359375,0 -0.640625,0 -0.640625,-0.171875 0,-0.0625 0.015625,-0.109375 0.03125,-0.171875 z M 3.734375,-6.125 C 3.828125,-6.46875 3.84375,-6.5 4.28125,-6.5 l 0.953125,0 c 0.828125,0 1.359375,0.265625 1.359375,0.953125 0,0.390625 -0.203125,1.25 -0.59375,1.609375 -0.5,0.453125 -1.09375,0.53125 -1.53125,0.53125 l -1.40625,0 z m 0,0"
               style="stroke:none" />
          </symbol>
          <symbol
             style="overflow:visible"
             id="textext-e6ec9472-5"
             overflow="visible">
            <path
               inkscape:connector-curvature="0"
               id="path6621"
               d="m 4.375,-7.09375 c 0.046875,-0.140625 0.046875,-0.171875 0.046875,-0.1875 0,-0.109375 -0.078125,-0.203125 -0.1875,-0.203125 -0.078125,0 -0.140625,0.03125 -0.171875,0.09375 l -3.46875,9.5 C 0.546875,2.25 0.546875,2.28125 0.546875,2.296875 0.546875,2.40625 0.640625,2.5 0.75,2.5 0.875,2.5 0.90625,2.421875 0.96875,2.25 z m 0,0"
               style="stroke:none" />
          </symbol>
          <symbol
             style="overflow:visible"
             id="textext-e6ec9472-6"
             overflow="visible">
            <path
               inkscape:connector-curvature="0"
               id="path6624"
               d=""
               style="stroke:none" />
          </symbol>
          <symbol
             style="overflow:visible"
             id="textext-e6ec9472-7"
             overflow="visible">
            <path
               inkscape:connector-curvature="0"
               id="path6627"
               d="m 1.90625,-2.328125 c 0.546875,0 0.9375,0.375 0.9375,1.125 0,0.859375 -0.515625,1.125 -0.90625,1.125 -0.28125,0 -0.90625,-0.078125 -1.1875,-0.5 0.328125,0 0.40625,-0.234375 0.40625,-0.390625 0,-0.21875 -0.171875,-0.375 -0.390625,-0.375 -0.1875,0 -0.390625,0.125 -0.390625,0.40625 0,0.65625 0.71875,1.078125 1.5625,1.078125 0.96875,0 1.640625,-0.65625 1.640625,-1.34375 0,-0.546875 -0.4375,-1.09375 -1.203125,-1.25 0.71875,-0.265625 0.984375,-0.78125 0.984375,-1.21875 0,-0.546875 -0.625,-0.953125 -1.40625,-0.953125 -0.765625,0 -1.359375,0.375 -1.359375,0.9375 0,0.234375 0.15625,0.359375 0.359375,0.359375 0.21875,0 0.359375,-0.15625 0.359375,-0.34375 0,-0.203125 -0.140625,-0.359375 -0.359375,-0.375 0.25,-0.296875 0.71875,-0.375 0.984375,-0.375 0.3125,0 0.75,0.15625 0.75,0.75 0,0.296875 -0.09375,0.625 -0.28125,0.828125 -0.21875,0.265625 -0.421875,0.28125 -0.765625,0.3125 -0.171875,0.015625 -0.1875,0.015625 -0.21875,0.015625 -0.015625,0 -0.078125,0.015625 -0.078125,0.09375 0,0.09375 0.0625,0.09375 0.1875,0.09375 z m 0,0"
               style="stroke:none" />
          </symbol>
          <symbol
             style="overflow:visible"
             id="textext-e6ec9472-8"
             overflow="visible">
            <path
               inkscape:connector-curvature="0"
               id="path6630"
               d="m 2.328125,-4.4375 c 0,-0.1875 0,-0.1875 -0.203125,-0.1875 -0.453125,0.4375 -1.078125,0.4375 -1.359375,0.4375 l 0,0.25 c 0.15625,0 0.625,0 1,-0.1875 l 0,3.546875 c 0,0.234375 0,0.328125 -0.6875,0.328125 l -0.265625,0 0,0.25 c 0.125,0 0.984375,-0.03125 1.234375,-0.03125 0.21875,0 1.09375,0.03125 1.25,0.03125 l 0,-0.25 -0.265625,0 c -0.703125,0 -0.703125,-0.09375 -0.703125,-0.328125 z m 0,0"
               style="stroke:none" />
          </symbol>
        </g>
      </defs>
      <g
         id="textext-e6ec9472-9">
        <g
           id="g6633"
           style="fill:#000000;fill-opacity:1">
          <use
             height="1052.3622"
             width="744.09448"
             id="use6635"
             y="137.48"
             x="222.95799"
             xlink:href="#textext-e6ec9472-1" />
        </g>
        <g
           id="g6637"
           style="fill:#000000;fill-opacity:1">
          <use
             height="1052.3622"
             width="744.09448"
             id="use6639"
             y="137.48"
             x="223.42569"
             xlink:href="#textext-e6ec9472-2" />
        </g>
        <g
           id="g6641"
           style="fill:#000000;fill-opacity:1">
          <use
             height="1052.3622"
             width="744.09448"
             id="use6643"
             y="132.274"
             x="230.153"
             xlink:href="#textext-e6ec9472-4" />
        </g>
        <g
           id="g6645"
           style="fill:#000000;fill-opacity:1">
          <use
             height="1052.3622"
             width="744.09448"
             id="use6647"
             y="133.769"
             x="236.549"
             xlink:href="#textext-e6ec9472-7" />
        </g>
        <g
           id="g6649"
           style="fill:#000000;fill-opacity:1">
          <use
             height="1052.3622"
             width="744.09448"
             id="use6651"
             y="132.274"
             x="241.01801"
             xlink:href="#textext-e6ec9472-5" />
          <use
             height="1052.3622"
             width="744.09448"
             id="use6653"
             y="132.274"
             x="245.9993"
             xlink:href="#textext-e6ec9472-4" />
        </g>
        <g
           id="g6655"
           style="fill:#000000;fill-opacity:1">
          <use
             height="1052.3622"
             width="744.09448"
             id="use6657"
             y="133.769"
             x="252.396"
             xlink:href="#textext-e6ec9472-8" />
        </g>
      </g>
    </g>
    <g
       id="g3524"
       ns0:preamble="/home/john/Desktop/anyname.ini"
       ns0:text="\\Large \\bf $\\vec{n}$"
       transform="matrix(2.5268196,0,0,2.5268196,-267.72853,-215.49949)">
      <defs
         id="defs3526">
        <g
           id="g3528">
          <symbol
             id="textext-4f6e9e97-0"
             overflow="visible"
             style="overflow:visible">
            <path
               id="path3531"
               d=""
               style="stroke:none"
               inkscape:connector-curvature="0" />
          </symbol>
          <symbol
             id="textext-4f6e9e97-1"
             overflow="visible"
             style="overflow:visible">
            <path
               id="path3534"
               d="M 7.671875,-8.5625 C 7.5,-8.40625 6.96875,-7.90625 6.96875,-7.703125 c 0,0.140625 0.125,0.265625 0.28125,0.265625 0.125,0 0.1875,-0.078125 0.28125,-0.21875 0.34375,-0.4375 0.734375,-0.703125 1.0625,-0.890625 0.140625,-0.09375 0.234375,-0.125 0.234375,-0.28125 0,-0.140625 -0.109375,-0.203125 -0.1875,-0.28125 C 8.234375,-9.375 8.140625,-9.765625 8.09375,-9.9375 8.046875,-10.0625 8,-10.234375 7.796875,-10.234375 c -0.078125,0 -0.25,0.0625 -0.25,0.28125 0,0.125 0.078125,0.46875 0.359375,0.859375 l -4.828125,0 c -0.234375,0 -0.484375,0 -0.484375,0.265625 0,0.265625 0.265625,0.265625 0.484375,0.265625 z m 0,0"
               style="stroke:none"
               inkscape:connector-curvature="0" />
          </symbol>
          <symbol
             id="textext-4f6e9e97-2"
             overflow="visible"
             style="overflow:visible">
            <path
               id="path3537"
               d="M 2.953125,-4.203125 C 2.984375,-4.28125 3.34375,-5 3.875,-5.46875 c 0.375,-0.34375 0.859375,-0.5625 1.421875,-0.5625 0.5625,0 0.765625,0.421875 0.765625,1 0,0.8125 -0.578125,2.453125 -0.875,3.21875 -0.125,0.34375 -0.203125,0.53125 -0.203125,0.796875 0,0.640625 0.453125,1.15625 1.140625,1.15625 1.328125,0 1.828125,-2.109375 1.828125,-2.1875 C 7.953125,-2.125 7.90625,-2.1875 7.8125,-2.1875 c -0.125,0 -0.140625,0.046875 -0.203125,0.296875 -0.34375,1.171875 -0.875,1.75 -1.4375,1.75 -0.140625,0 -0.375,-0.015625 -0.375,-0.46875 0,-0.359375 0.15625,-0.796875 0.234375,-1 C 6.328125,-2.390625 6.921875,-4 6.921875,-4.8125 c 0,-0.875 -0.5,-1.515625 -1.59375,-1.515625 -1.265625,0 -1.9375,0.90625 -2.203125,1.265625 C 3.078125,-5.875 2.5,-6.328125 1.859375,-6.328125 c -0.453125,0 -0.765625,0.28125 -1.015625,0.765625 -0.25,0.515625 -0.453125,1.375 -0.453125,1.4375 0,0.046875 0.046875,0.125 0.15625,0.125 0.109375,0 0.125,-0.015625 0.21875,-0.34375 0.21875,-0.875 0.484375,-1.6875 1.0625,-1.6875 0.328125,0 0.4375,0.21875 0.4375,0.65625 0,0.3125 -0.140625,0.875 -0.25,1.3125 L 1.625,-2.515625 c -0.0625,0.28125 -0.21875,0.921875 -0.296875,1.1875 -0.09375,0.359375 -0.25,1.046875 -0.25,1.109375 0,0.203125 0.15625,0.359375 0.375,0.359375 0.171875,0 0.375,-0.078125 0.484375,-0.296875 0.03125,-0.078125 0.15625,-0.578125 0.234375,-0.859375 l 0.3125,-1.296875 z m 0,0"
               style="stroke:none"
               inkscape:connector-curvature="0" />
          </symbol>
        </g>
      </defs>
      <g
         id="textext-4f6e9e97-3">
        <g
           id="g3540"
           style="fill:#000000;fill-opacity:1">
          <use
             id="use3542"
             y="135.028"
             x="223.00999"
             xlink:href="#textext-4f6e9e97-1"
             width="529"
             height="263" />
        </g>
        <g
           id="g3544"
           style="fill:#000000;fill-opacity:1">
          <use
             id="use3546"
             y="135.028"
             x="223.43465"
             xlink:href="#textext-4f6e9e97-2"
             width="529"
             height="263" />
        </g>
      </g>
    </g>
    <g
       id="g6356">
      <path
         inkscape:connector-curvature="0"
         id="path3649"
         d="M 247.95918,147.69387 291.83673,80.346939"
         style="fill:none;stroke:#fc0000;stroke-width:2.50000000000000000;stroke-linecap:butt;stroke-linejoin:miter;stroke-miterlimit:4;stroke-opacity:1;stroke-dasharray:none;marker-end:url(#Arrow2Mend)" />
      <path
         inkscape:connector-curvature="0"
         id="path4879"
         d="m 262.45615,123.27856 21.28427,14.35036 -15.20305,22.96054"
         style="fill:none;stroke:#fd0003;stroke-width:2.24495625;stroke-linecap:butt;stroke-linejoin:miter;stroke-miterlimit:4;stroke-opacity:1;stroke-dasharray:none" />
      <path
         inkscape:connector-curvature="0"
         id="path4883"
         d="m 253.29949,149.80203 18.27411,10.15228"
         style="fill:none;stroke:#000000;stroke-width:1;stroke-linecap:butt;stroke-linejoin:miter;stroke-miterlimit:4;stroke-opacity:1;stroke-dasharray:1, 6;stroke-dashoffset:0" />
    </g>
    <path
       style="fill:#fd0003;fill-opacity:1;stroke:#fc0003;stroke-width:1.28205132;stroke-linecap:butt;stroke-linejoin:miter;stroke-miterlimit:4;stroke-opacity:1;stroke-dasharray:none;stroke-dashoffset:10"
       d="m 288.97193,92.571171 c -0.56265,-1.772762 -5.2484,-4.660915 -7.56189,-4.660915 -0.73551,0 0.89509,-1.488533 5.02413,-4.5864 3.36218,-2.52252 6.19035,-4.367569 6.28482,-4.100109 0.1829,0.517855 -2.95759,14.327535 -3.25826,14.327535 -0.0978,0 -0.3177,-0.44105 -0.4888,-0.980111 z"
       id="path3092"
       inkscape:connector-curvature="0" />
  </g>
</svg>
